<?xml version="1.0" encoding="UTF-8"?>
<svg xmlns="http://www.w3.org/2000/svg" xmlns:xlink="http://www.w3.org/1999/xlink" width="10px" height="10px" viewBox="0 0 10 10" version="1.1">
<g id="surface1">
<path style=" stroke:none;fill-rule:nonzero;fill:rgb(100%,0%,0%);fill-opacity:1;" d="M 4.609375 9.003906 C 4.394531 8.765625 3.863281 8.300781 3.425781 7.96875 C 2.125 6.988281 1.949219 6.847656 1.421875 6.359375 C 0.449219 5.464844 0.0390625 4.566406 0.0390625 3.347656 C 0.0390625 2.753906 0.078125 2.523438 0.246094 2.171875 C 0.53125 1.578125 0.945312 1.136719 1.476562 0.863281 C 1.855469 0.671875 2.042969 0.589844 2.671875 0.585938 C 3.332031 0.582031 3.46875 0.65625 3.855469 0.871094 C 4.328125 1.128906 4.8125 1.683594 4.914062 2.078125 L 4.976562 2.320312 L 5.128906 1.984375 C 5.992188 0.09375 8.75 0.121094 9.710938 2.03125 C 10.015625 2.636719 10.046875 3.933594 9.777344 4.660156 C 9.425781 5.613281 8.765625 6.335938 7.234375 7.445312 C 6.234375 8.175781 5.097656 9.277344 5.019531 9.429688 C 4.925781 9.609375 5.015625 9.460938 4.609375 9.003906 Z M 4.609375 9.003906 "/>
</g>
</svg>
